PathFileType	4	(X/Y/Z)	D:\TRACE\spotREDO_2-26-24\spot_Both_Motion_1_1-v60.trc
DataRate	CameraRate	NumFrames	NumMarkers	Units	OrigDataRate	OrigDataStartFrame	OrigNumFrames
100.00	100.00	      38	9	mm	100.00	876	      7000
Frame#	Time	front left toe			Front right toe			aft left toe			aft right toe			Arm			FL body			FR body			AL Body			AR Body			
		X1	Y1	Z1	X2	Y2	Z2	X3	Y3	Z3	X4	Y4	Z4	X5	Y5	Z5	X6	Y6	Z6	X7	Y7	Z7	X8	Y8	Z8	X9	Y9	Z9	

876	8.750	-212.40646	0.10133	-434.15958	195.94646	8.22288	-424.87845	-254.57616	22.36337	157.21603	142.00366	28.68176	150.34273	-105.90424	709.40674	-770.09955	-131.50517	576.42017	-492.77740	23.63045	579.02271	-490.78189	-149.22507	567.58868	391.21942	-8.02155	570.44696	394.76611	
877	8.760	-211.45825	-0.27260	-434.10739	197.36096	8.24697	-424.92288	-253.78961	22.27992	156.99341	142.73685	28.86707	150.23949	-105.08050	709.28467	-770.48254	-129.65334	576.02856	-491.21384	25.37782	578.56622	-489.34555	-146.95288	567.68481	392.60242	-5.98158	570.43378	396.06235	
878	8.770	-210.69849	-0.62800	-434.15271	198.35692	8.25387	-424.66415	-253.00638	22.30620	157.14525	143.93866	28.96701	150.43301	-104.24860	708.59882	-770.44208	-127.72099	575.59369	-489.68561	27.66916	577.67688	-487.60999	-144.46243	567.77844	394.17944	-3.51947	570.47150	397.70758	
879	8.780	-210.34662	-1.47186	-434.44717	199.56432	7.91607	-424.22717	-251.99026	22.58247	156.77029	144.71100	28.94760	150.43913	-103.21794	708.34918	-770.48151	-125.39281	575.09021	-488.01514	30.20949	576.93359	-485.95499	-141.95609	567.86981	396.00443	-1.10115	570.40100	399.52414	
880	8.790	-209.89006	-1.02902	-434.34995	200.83786	6.95673	-423.88397	-251.34593	23.24858	156.97252	146.12674	28.79337	151.12004	-102.48689	708.10394	-770.73572	-122.38488	574.17609	-485.97525	32.78497	576.08246	-484.07700	-139.90018	568.01953	397.97418	1.54958	570.23315	401.48245	
881	8.800	-215.60007	4.70974	-430.35565	202.22356	5.41573	-424.25366	-249.88579	23.44895	156.52322	147.64552	26.94834	150.56694	-101.87985	707.96741	-771.00989	-119.15029	573.84125	-484.40335	36.01034	575.71423	-481.59109	-137.95972	567.81848	399.75409	3.39072	569.99377	403.37860	
882	8.810	-208.07478	14.73819	-427.17200	204.98152	4.83754	-422.56613	-248.01413	23.74517	157.08119	148.81389	26.97589	151.20149	-101.07684	708.28467	-771.01794	-116.10171	572.28491	-482.90628	39.11944	575.46106	-480.22415	-136.62410	567.66138	401.08917	4.68209	571.31097	405.24985	
883	8.820	-211.33925	27.43016	-426.78754	205.87172	4.33085	-423.32666	-246.71913	23.52593	156.45787	150.00603	28.38460	150.36633	-100.30891	708.91846	-771.04132	-113.10323	571.28259	-481.23154	42.14614	575.10571	-478.44397	-135.01848	567.91711	402.54236	5.76072	572.60486	407.08368	
884	8.830	-215.80067	40.85007	-430.06973	206.93326	4.35608	-422.97784	-246.11055	24.03551	156.94296	150.54337	28.21777	151.77121	-99.80135	709.47400	-770.68451	-110.28844	570.40820	-479.76163	44.81644	575.04370	-476.79211	-133.02267	567.57587	404.08426	7.50301	572.89124	408.58768	
885	8.840	-218.72665	55.45835	-435.53964	207.64394	3.92202	-423.10315	-245.04034	24.07969	157.06375	152.58498	27.84002	151.10992	-100.03714	709.46637	-770.43396	-108.08849	569.73804	-478.26459	47.00771	574.72491	-475.23953	-131.56523	566.98566	405.46701	9.63830	572.04309	410.24564	
886	8.850	-223.89963	67.11398	-439.03009	208.36050	4.14557	-423.21783	-243.89914	24.34237	156.83775	154.04562	27.49671	151.44179	-100.29186	709.06927	-770.76569	-106.15475	569.79260	-476.79660	48.96003	575.29767	-473.61246	-129.59329	566.48969	406.99103	11.07107	571.59277	411.55396	
887	8.860	-220.59743	79.37795	-440.74542	209.39508	4.42119	-423.05176	-242.64925	24.64034	157.34576	154.15370	27.10368	151.07199	-100.41238	708.79694	-770.96002	-104.60413	570.04181	-475.48053	50.47611	575.33344	-472.57681	-127.89086	566.31830	408.35379	12.78939	571.19666	412.95135	
888	8.870	-222.71864	88.19857	-439.05161	209.86020	3.84753	-423.85599	-241.84944	24.56645	157.39339	155.73982	27.15482	151.47499	-100.39548	708.58777	-770.71478	-103.35498	570.25891	-473.99612	51.82578	575.47980	-471.33762	-126.27885	565.59961	409.77841	14.19277	570.50012	414.07202	
889	8.880	-221.63660	97.53807	-436.89627	210.82349	4.16622	-423.17993	-240.63625	24.55647	157.33937	156.88463	27.22473	151.52437	-99.79810	708.53296	-770.76538	-102.40312	570.34204	-472.96655	53.32497	575.47095	-469.97485	-125.03206	565.09845	410.76913	15.36182	570.26257	415.19751	
890	8.890	-222.06186	106.36938	-436.64676	211.77742	3.83444	-423.32898	-239.75758	24.68712	157.43771	157.67146	27.24270	151.53661	-99.03558	708.64294	-771.01575	-101.29771	570.41937	-471.83670	54.44458	575.34399	-468.48340	-123.50622	564.70947	411.94885	16.90740	570.03864	416.27499	
891	8.900	-223.79710	113.40125	-437.07468	212.78813	3.82669	-423.32031	-238.97081	24.67706	157.44818	158.77017	27.34262	151.53711	-97.78889	708.54694	-771.01044	-100.67561	570.22321	-470.80859	55.08258	575.44043	-467.96909	-122.13693	564.46002	413.07443	18.47789	569.72290	417.26797	
892	8.910	-224.31505	120.68550	-438.89694	213.70570	3.85198	-423.17435	-237.70895	24.77551	157.39380	159.60284	27.63412	151.66183	-96.39996	708.23730	-770.88788	-99.79652	569.98969	-469.86127	55.64176	575.22687	-467.01306	-120.93076	564.29395	414.05124	19.00354	569.90094	418.25363	
893	8.920	-227.24011	125.21787	-440.95401	214.60075	3.97979	-423.40292	-236.92239	24.93136	157.64095	160.73946	27.83319	151.68991	-95.24222	707.74048	-771.26764	-99.75121	570.02301	-468.94455	56.08870	575.17804	-466.00989	-120.01762	564.07690	414.91995	20.20801	569.47394	419.04480	
894	8.930	-226.71880	127.19820	-442.35492	215.13684	4.23728	-423.30969	-236.00343	24.69888	157.83752	161.54478	27.62980	151.74100	-94.08989	707.07141	-771.73175	-99.42216	570.00024	-467.95761	56.18386	575.29041	-465.52991	-119.05752	563.59625	415.97052	22.55803	568.59271	419.73099	
895	8.940	-225.61163	127.40247	-443.74539	215.82439	4.44141	-423.42703	-235.23515	24.50527	157.85420	162.44879	27.42239	151.45589	-92.69049	706.07471	-772.32892	-99.32986	570.31976	-467.25394	56.43178	575.38129	-464.93539	-118.29936	562.98077	416.61102	23.20981	568.13428	420.67130	
896	8.950	-222.60693	125.54960	-445.83963	216.36700	4.68152	-423.60904	-234.52670	24.50484	157.84499	163.42143	27.45144	151.40547	-90.16614	704.51971	-773.06384	-99.47837	570.54828	-466.69226	56.38028	575.62939	-464.40662	-117.71006	562.60126	417.34415	23.84554	567.60413	421.16299	
897	8.960	-217.85803	125.38205	-450.08783	216.65434	4.76715	-423.86218	-233.51193	24.65338	157.94556	164.43005	27.74899	151.57320	-87.33533	702.60925	-774.56134	-99.85190	570.71997	-465.93976	55.94780	575.73584	-463.79993	-117.05722	562.44550	417.90466	24.34487	567.54120	421.49704	
898	8.970	-213.17722	124.67468	-455.94669	217.30226	4.89001	-423.68188	-232.52127	24.76508	158.14253	165.22791	27.93196	151.58414	-83.00715	699.84204	-776.06561	-100.00833	570.54089	-465.31476	55.54359	575.83740	-463.49466	-116.22230	562.27649	418.58054	25.07640	567.45740	421.97638	
899	8.980	-205.45757	123.76184	-463.33249	218.18570	4.50907	-424.11975	-231.44048	24.30282	158.36172	166.42036	28.24591	151.37112	-78.27231	696.40070	-778.41156	-100.35232	570.16125	-465.02542	54.97568	575.87738	-463.30563	-115.50386	561.88861	418.93567	25.69167	567.32996	422.15106	
900	8.990	-199.19080	123.83948	-471.61005	218.98102	4.73415	-424.61823	-230.55481	24.61316	158.18739	167.10182	28.27114	151.26573	-72.17777	692.33380	-780.62775	-101.31773	569.59283	-464.63867	54.66413	575.50604	-462.64435	-115.18814	561.71429	419.26065	26.01492	567.35803	422.28928	
901	9.000	-191.89139	122.66001	-479.32193	219.62216	4.79194	-424.38324	-229.13643	24.61713	158.18039	167.76552	28.42441	151.22575	-65.56698	687.70776	-782.55829	-101.60908	568.92444	-464.40430	53.84845	575.02588	-463.15546	-115.09606	561.96136	419.35355	26.03069	567.56714	422.34485	
902	9.010	-184.54776	121.29039	-486.24026	220.13803	4.75154	-424.48129	-228.50945	24.43575	158.36972	169.17572	28.68435	151.29401	-59.36848	683.09570	-784.85583	-101.97572	568.04285	-464.52139	53.36037	574.27734	-463.18991	-115.24561	562.09119	419.30566	25.87120	567.80328	422.37418	
903	9.020	-176.29593	118.48824	-492.98526	221.03897	4.40437	-424.31461	-228.00815	24.47476	158.15315	169.58528	28.71685	151.26624	-53.72380	678.53955	-786.80023	-102.23714	567.03748	-464.75269	54.34417	572.98523	-462.86966	-116.11071	562.54913	418.94690	25.02277	568.50494	422.26813	
904	9.030	-167.81096	112.70059	-497.92850	222.57367	4.42999	-423.76938	-227.09471	24.21198	157.74481	170.41257	29.20425	151.20819	-48.86630	674.33490	-788.36017	-101.17632	565.08643	-465.44955	55.02841	571.66418	-463.65805	-116.97646	562.56171	418.20212	23.93332	569.47998	421.65393	
905	9.040	-160.15463	104.36629	-502.13443	224.44926	3.50571	-423.65912	-226.27806	23.80701	157.49934	171.07692	29.76575	151.11794	-45.36820	670.75116	-789.56183	-99.65054	563.07343	-466.54703	55.69164	569.68945	-464.14948	-119.01221	564.14813	417.28406	22.29700	570.57373	421.27332	
906	9.050	-153.34244	94.54890	-504.66827	225.99268	3.01850	-423.03033	-225.90132	23.58950	157.27043	170.82841	29.94088	150.74724	-43.41293	667.54926	-790.06573	-98.09587	560.78870	-467.85074	58.09745	567.59644	-464.78738	-121.03307	565.05042	415.79218	20.18752	571.82800	420.40167	
907	9.060	-150.36613	83.72366	-504.76483	228.03098	2.05811	-422.39621	-225.49181	23.16176	156.81532	171.14360	30.39475	150.97226	-42.78092	665.32043	-790.69080	-95.79100	558.10150	-469.36246	59.48745	565.50299	-465.87973	-123.21053	566.06525	414.28409	18.16401	572.84857	419.48447	
908	9.070	-150.65234	72.90134	-503.27899	229.95778	1.22292	-421.56500	-224.96796	22.64206	156.74265	172.11043	30.42776	150.96817	-42.87772	663.58215	-790.72986	-93.73159	555.60291	-470.84180	61.87252	562.81287	-466.44693	-125.22714	566.69391	412.54678	15.74481	574.10205	418.58502	
909	9.080	-155.44766	62.89624	-498.84036	232.09569	0.80935	-421.21646	-224.47667	22.04904	156.78073	173.22496	30.60605	151.07750	-44.69381	662.95038	-790.80743	-92.12625	553.05341	-472.48630	64.00230	560.55444	-467.45712	-126.67746	566.44513	410.62741	14.23754	574.81989	417.44504	
910	9.090	-165.72308	53.64240	-492.72806	232.92290	0.28830	-421.11777	-223.80351	21.92815	156.36488	173.51942	30.62530	151.04419	-46.75234	662.68298	-790.07025	-91.20634	550.66962	-474.01300	65.19935	558.24432	-468.79764	-128.13121	567.03186	408.89877	13.13381	575.54193	415.90634	
911	9.100	-180.88696	45.36118	-486.35843	234.23643	0.49056	-420.95398	-222.94638	21.82519	156.02159	174.28122	30.80143	151.11852	-49.60421	663.37964	-789.70233	-88.80406	548.00427	-476.17459	65.99849	556.13599	-470.30679	-128.61723	567.76550	407.07648	12.45207	576.38019	414.40051	
912	9.110	-197.02808	37.86265	-480.86584	234.79918	0.68264	-421.08365	-221.87057	22.11045	155.82979	175.04781	30.97630	151.09544	-52.85114	664.43329	-788.95660	-89.34011	546.23053	-477.62796	65.64186	554.08356	-472.00800	-128.31674	568.64160	405.35745	12.42873	577.37128	412.43982	
913	9.120	-211.56995	30.39199	-475.20789	234.49977	1.26515	-421.84134	-220.20479	22.51289	155.98616	175.87735	30.75750	150.76141	-56.07687	665.89740	-788.55408	-90.66407	545.11420	-478.82346	64.66010	552.40540	-473.34686	-127.69287	569.84058	403.89270	13.19879	577.77283	410.54950	
